%TF.GenerationSoftware,KiCad,Pcbnew,(6.0.10-0)*%
%TF.CreationDate,2023-02-17T12:04:27-08:00*%
%TF.ProjectId,lab6,6c616236-2e6b-4696-9361-645f70636258,rev?*%
%TF.SameCoordinates,Original*%
%TF.FileFunction,Copper,L1,Top*%
%TF.FilePolarity,Positive*%
%FSLAX46Y46*%
G04 Gerber Fmt 4.6, Leading zero omitted, Abs format (unit mm)*
G04 Created by KiCad (PCBNEW (6.0.10-0)) date 2023-02-17 12:04:27*
%MOMM*%
%LPD*%
G01*
G04 APERTURE LIST*
G04 Aperture macros list*
%AMRoundRect*
0 Rectangle with rounded corners*
0 $1 Rounding radius*
0 $2 $3 $4 $5 $6 $7 $8 $9 X,Y pos of 4 corners*
0 Add a 4 corners polygon primitive as box body*
4,1,4,$2,$3,$4,$5,$6,$7,$8,$9,$2,$3,0*
0 Add four circle primitives for the rounded corners*
1,1,$1+$1,$2,$3*
1,1,$1+$1,$4,$5*
1,1,$1+$1,$6,$7*
1,1,$1+$1,$8,$9*
0 Add four rect primitives between the rounded corners*
20,1,$1+$1,$2,$3,$4,$5,0*
20,1,$1+$1,$4,$5,$6,$7,0*
20,1,$1+$1,$6,$7,$8,$9,0*
20,1,$1+$1,$8,$9,$2,$3,0*%
G04 Aperture macros list end*
%TA.AperFunction,SMDPad,CuDef*%
%ADD10RoundRect,0.150000X0.825000X0.150000X-0.825000X0.150000X-0.825000X-0.150000X0.825000X-0.150000X0*%
%TD*%
%TA.AperFunction,SMDPad,CuDef*%
%ADD11R,2.290000X3.000000*%
%TD*%
%TA.AperFunction,SMDPad,CuDef*%
%ADD12RoundRect,0.250000X-0.350000X-0.450000X0.350000X-0.450000X0.350000X0.450000X-0.350000X0.450000X0*%
%TD*%
%TA.AperFunction,SMDPad,CuDef*%
%ADD13RoundRect,0.250001X0.462499X0.624999X-0.462499X0.624999X-0.462499X-0.624999X0.462499X-0.624999X0*%
%TD*%
%TA.AperFunction,ComponentPad*%
%ADD14R,3.000000X3.000000*%
%TD*%
%TA.AperFunction,ComponentPad*%
%ADD15C,3.000000*%
%TD*%
%TA.AperFunction,SMDPad,CuDef*%
%ADD16RoundRect,0.250000X0.537500X0.425000X-0.537500X0.425000X-0.537500X-0.425000X0.537500X-0.425000X0*%
%TD*%
%TA.AperFunction,SMDPad,CuDef*%
%ADD17RoundRect,0.250000X-0.337500X-0.475000X0.337500X-0.475000X0.337500X0.475000X-0.337500X0.475000X0*%
%TD*%
%TA.AperFunction,SMDPad,CuDef*%
%ADD18RoundRect,0.250000X0.450000X-0.350000X0.450000X0.350000X-0.450000X0.350000X-0.450000X-0.350000X0*%
%TD*%
%TA.AperFunction,SMDPad,CuDef*%
%ADD19RoundRect,0.250000X-0.450000X0.350000X-0.450000X-0.350000X0.450000X-0.350000X0.450000X0.350000X0*%
%TD*%
%TA.AperFunction,SMDPad,CuDef*%
%ADD20RoundRect,0.250001X0.624999X-0.462499X0.624999X0.462499X-0.624999X0.462499X-0.624999X-0.462499X0*%
%TD*%
%TA.AperFunction,ViaPad*%
%ADD21C,0.800000*%
%TD*%
%TA.AperFunction,Conductor*%
%ADD22C,0.250000*%
%TD*%
G04 APERTURE END LIST*
D10*
%TO.P,U1,1,GND*%
%TO.N,GND*%
X170115000Y-80645000D03*
%TO.P,U1,2,TR*%
%TO.N,/pin_2*%
X170115000Y-79375000D03*
%TO.P,U1,3,Q*%
%TO.N,/pin_3*%
X170115000Y-78105000D03*
%TO.P,U1,4,R*%
%TO.N,/+9V *%
X170115000Y-76835000D03*
%TO.P,U1,5,CV*%
%TO.N,Net-(C2-Pad1)*%
X165165000Y-76835000D03*
%TO.P,U1,6,THR*%
%TO.N,/pin_2*%
X165165000Y-78105000D03*
%TO.P,U1,7,DIS*%
%TO.N,/pin_7*%
X165165000Y-79375000D03*
%TO.P,U1,8,VCC*%
%TO.N,+9V*%
X165165000Y-80645000D03*
D11*
%TO.P,U1,9*%
%TO.N,N/C*%
X167640000Y-78740000D03*
%TD*%
D12*
%TO.P,R2,1*%
%TO.N,/pin_7*%
X152940000Y-72995000D03*
%TO.P,R2,2*%
%TO.N,/pin_2*%
X154940000Y-72995000D03*
%TD*%
D13*
%TO.P,D1,1,K*%
%TO.N,Net-(D1-Pad1)*%
X177915000Y-72740000D03*
%TO.P,D1,2,A*%
%TO.N,+9V*%
X174940000Y-72740000D03*
%TD*%
D14*
%TO.P,J1,1,Pin_1*%
%TO.N,+9V*%
X142240000Y-78740000D03*
D15*
%TO.P,J1,2,Pin_2*%
%TO.N,GND*%
X147320000Y-78740000D03*
%TD*%
D16*
%TO.P,C1,1*%
%TO.N,/pin_2*%
X151297500Y-60960000D03*
%TO.P,C1,2*%
%TO.N,GND*%
X148422500Y-60960000D03*
%TD*%
D17*
%TO.P,C2,1*%
%TO.N,Net-(C2-Pad1)*%
X164725004Y-60515000D03*
%TO.P,C2,2*%
%TO.N,GND*%
X166800004Y-60515000D03*
%TD*%
D18*
%TO.P,R1,1*%
%TO.N,+9V*%
X152412936Y-79370872D03*
%TO.P,R1,2*%
%TO.N,/pin_7*%
X152412936Y-77370872D03*
%TD*%
D19*
%TO.P,R3,1*%
%TO.N,Net-(D1-Pad1)*%
X169375000Y-65040000D03*
%TO.P,R3,2*%
%TO.N,/pin_3*%
X169375000Y-67040000D03*
%TD*%
D20*
%TO.P,D2,1,K*%
%TO.N,GND*%
X182880000Y-87847500D03*
%TO.P,D2,2,A*%
%TO.N,Net-(D2-Pad2)*%
X182880000Y-84872500D03*
%TD*%
D19*
%TO.P,R4,1*%
%TO.N,/pin_3*%
X173780000Y-57420000D03*
%TO.P,R4,2*%
%TO.N,Net-(D2-Pad2)*%
X173780000Y-59420000D03*
%TD*%
D21*
%TO.N,/pin_2*%
X149999087Y-68440913D03*
X175260000Y-81280000D03*
%TO.N,GND*%
X156802504Y-54810000D03*
X175545000Y-86075000D03*
%TO.N,+9V*%
X180340000Y-83820000D03*
X162275000Y-83535000D03*
%TD*%
D22*
%TO.N,/pin_2*%
X160050000Y-78105000D02*
X154940000Y-72995000D01*
X149999087Y-62258413D02*
X149999087Y-68440913D01*
X154553173Y-72995000D02*
X154940000Y-72995000D01*
X175260000Y-81280000D02*
X175260000Y-83820000D01*
X173355000Y-79375000D02*
X175260000Y-81280000D01*
X170115000Y-79375000D02*
X173355000Y-79375000D01*
X165165000Y-78105000D02*
X160050000Y-78105000D01*
X149999087Y-68440913D02*
X154553173Y-72995000D01*
X151297500Y-60960000D02*
X149999087Y-62258413D01*
%TO.N,GND*%
X156802504Y-54810000D02*
X157840004Y-54810000D01*
X154572500Y-54810000D02*
X156802504Y-54810000D01*
X157840004Y-54810000D02*
X158910004Y-55880000D01*
X162165004Y-55880000D02*
X166800004Y-60515000D01*
X175545000Y-86075000D02*
X170115000Y-80645000D01*
X182880000Y-87847500D02*
X177317500Y-87847500D01*
X147320000Y-62062500D02*
X148422500Y-60960000D01*
X177317500Y-87847500D02*
X175545000Y-86075000D01*
X158910004Y-55880000D02*
X162165004Y-55880000D01*
X148422500Y-60960000D02*
X154572500Y-54810000D01*
X147320000Y-78740000D02*
X147320000Y-62062500D01*
%TO.N,Net-(C2-Pad1)*%
X156442500Y-64292504D02*
X156442500Y-68112500D01*
X156442500Y-68112500D02*
X165165000Y-76835000D01*
X164725004Y-60515000D02*
X160220004Y-60515000D01*
X160220004Y-60515000D02*
X156442500Y-64292504D01*
%TO.N,Net-(D1-Pad1)*%
X169375000Y-65040000D02*
X170215000Y-65040000D01*
X170215000Y-65040000D02*
X177915000Y-72740000D01*
%TO.N,+9V*%
X162185000Y-83625000D02*
X162275000Y-83535000D01*
X158110872Y-79370872D02*
X162275000Y-83535000D01*
X174940000Y-72740000D02*
X180340000Y-78140000D01*
X180340000Y-83820000D02*
X180340000Y-86360000D01*
X152412936Y-79370872D02*
X158110872Y-79370872D01*
X147125000Y-83625000D02*
X162185000Y-83625000D01*
X165165000Y-80645000D02*
X162275000Y-83535000D01*
X142240000Y-78740000D02*
X147125000Y-83625000D01*
X180340000Y-78140000D02*
X180340000Y-83820000D01*
%TO.N,Net-(D2-Pad2)*%
X182880000Y-60960000D02*
X182880000Y-84872500D01*
X181340000Y-59420000D02*
X182880000Y-60960000D01*
X173780000Y-59420000D02*
X181340000Y-59420000D01*
%TO.N,/pin_7*%
X158679476Y-77370872D02*
X160683604Y-79375000D01*
X152412936Y-73522064D02*
X152412936Y-77370872D01*
X152940000Y-72995000D02*
X152412936Y-73522064D01*
X152412936Y-77370872D02*
X158679476Y-77370872D01*
X160683604Y-79375000D02*
X165165000Y-79375000D01*
%TO.N,/pin_3*%
X173780000Y-57420000D02*
X168350000Y-62850000D01*
X172720000Y-75876751D02*
X172720000Y-70385000D01*
X172720000Y-70385000D02*
X169375000Y-67040000D01*
X168350000Y-62850000D02*
X168350000Y-66015000D01*
X170491751Y-78105000D02*
X172720000Y-75876751D01*
X168350000Y-66015000D02*
X169375000Y-67040000D01*
X170115000Y-78105000D02*
X170491751Y-78105000D01*
%TD*%
M02*
