%TF.GenerationSoftware,KiCad,Pcbnew,(6.0.10-0)*%
%TF.CreationDate,2023-02-17T12:04:27-08:00*%
%TF.ProjectId,lab6,6c616236-2e6b-4696-9361-645f70636258,rev?*%
%TF.SameCoordinates,Original*%
%TF.FileFunction,Legend,Top*%
%TF.FilePolarity,Positive*%
%FSLAX46Y46*%
G04 Gerber Fmt 4.6, Leading zero omitted, Abs format (unit mm)*
G04 Created by KiCad (PCBNEW (6.0.10-0)) date 2023-02-17 12:04:27*
%MOMM*%
%LPD*%
G01*
G04 APERTURE LIST*
%ADD10C,0.150000*%
%ADD11C,0.120000*%
G04 APERTURE END LIST*
D10*
%TO.C,U1*%
X166878095Y-81592380D02*
X166878095Y-82401904D01*
X166925714Y-82497142D01*
X166973333Y-82544761D01*
X167068571Y-82592380D01*
X167259047Y-82592380D01*
X167354285Y-82544761D01*
X167401904Y-82497142D01*
X167449523Y-82401904D01*
X167449523Y-81592380D01*
X168449523Y-82592380D02*
X167878095Y-82592380D01*
X168163809Y-82592380D02*
X168163809Y-81592380D01*
X168068571Y-81735238D01*
X167973333Y-81830476D01*
X167878095Y-81878095D01*
%TO.C,R2*%
X153773333Y-71797380D02*
X153440000Y-71321190D01*
X153201904Y-71797380D02*
X153201904Y-70797380D01*
X153582857Y-70797380D01*
X153678095Y-70845000D01*
X153725714Y-70892619D01*
X153773333Y-70987857D01*
X153773333Y-71130714D01*
X153725714Y-71225952D01*
X153678095Y-71273571D01*
X153582857Y-71321190D01*
X153201904Y-71321190D01*
X154154285Y-70892619D02*
X154201904Y-70845000D01*
X154297142Y-70797380D01*
X154535238Y-70797380D01*
X154630476Y-70845000D01*
X154678095Y-70892619D01*
X154725714Y-70987857D01*
X154725714Y-71083095D01*
X154678095Y-71225952D01*
X154106666Y-71797380D01*
X154725714Y-71797380D01*
%TO.C,D1*%
X175689404Y-75012380D02*
X175689404Y-74012380D01*
X175927500Y-74012380D01*
X176070357Y-74060000D01*
X176165595Y-74155238D01*
X176213214Y-74250476D01*
X176260833Y-74440952D01*
X176260833Y-74583809D01*
X176213214Y-74774285D01*
X176165595Y-74869523D01*
X176070357Y-74964761D01*
X175927500Y-75012380D01*
X175689404Y-75012380D01*
X177213214Y-75012380D02*
X176641785Y-75012380D01*
X176927500Y-75012380D02*
X176927500Y-74012380D01*
X176832261Y-74155238D01*
X176737023Y-74250476D01*
X176641785Y-74298095D01*
%TO.C,J1*%
X144446666Y-73112380D02*
X144446666Y-73826666D01*
X144399047Y-73969523D01*
X144303809Y-74064761D01*
X144160952Y-74112380D01*
X144065714Y-74112380D01*
X145446666Y-74112380D02*
X144875238Y-74112380D01*
X145160952Y-74112380D02*
X145160952Y-73112380D01*
X145065714Y-73255238D01*
X144970476Y-73350476D01*
X144875238Y-73398095D01*
%TO.C,C1*%
X149693333Y-63067142D02*
X149645714Y-63114761D01*
X149502857Y-63162380D01*
X149407619Y-63162380D01*
X149264761Y-63114761D01*
X149169523Y-63019523D01*
X149121904Y-62924285D01*
X149074285Y-62733809D01*
X149074285Y-62590952D01*
X149121904Y-62400476D01*
X149169523Y-62305238D01*
X149264761Y-62210000D01*
X149407619Y-62162380D01*
X149502857Y-62162380D01*
X149645714Y-62210000D01*
X149693333Y-62257619D01*
X150645714Y-63162380D02*
X150074285Y-63162380D01*
X150360000Y-63162380D02*
X150360000Y-62162380D01*
X150264761Y-62305238D01*
X150169523Y-62400476D01*
X150074285Y-62448095D01*
%TO.C,C2*%
X165595837Y-59192142D02*
X165548218Y-59239761D01*
X165405361Y-59287380D01*
X165310123Y-59287380D01*
X165167265Y-59239761D01*
X165072027Y-59144523D01*
X165024408Y-59049285D01*
X164976789Y-58858809D01*
X164976789Y-58715952D01*
X165024408Y-58525476D01*
X165072027Y-58430238D01*
X165167265Y-58335000D01*
X165310123Y-58287380D01*
X165405361Y-58287380D01*
X165548218Y-58335000D01*
X165595837Y-58382619D01*
X165976789Y-58382619D02*
X166024408Y-58335000D01*
X166119646Y-58287380D01*
X166357742Y-58287380D01*
X166452980Y-58335000D01*
X166500599Y-58382619D01*
X166548218Y-58477857D01*
X166548218Y-58573095D01*
X166500599Y-58715952D01*
X165929170Y-59287380D01*
X166548218Y-59287380D01*
%TO.C,R1*%
X151215316Y-78537538D02*
X150739126Y-78870872D01*
X151215316Y-79108967D02*
X150215316Y-79108967D01*
X150215316Y-78728014D01*
X150262936Y-78632776D01*
X150310555Y-78585157D01*
X150405793Y-78537538D01*
X150548650Y-78537538D01*
X150643888Y-78585157D01*
X150691507Y-78632776D01*
X150739126Y-78728014D01*
X150739126Y-79108967D01*
X151215316Y-77585157D02*
X151215316Y-78156586D01*
X151215316Y-77870872D02*
X150215316Y-77870872D01*
X150358174Y-77966110D01*
X150453412Y-78061348D01*
X150501031Y-78156586D01*
%TO.C,R3*%
X171477380Y-66206666D02*
X171001190Y-66540000D01*
X171477380Y-66778095D02*
X170477380Y-66778095D01*
X170477380Y-66397142D01*
X170525000Y-66301904D01*
X170572619Y-66254285D01*
X170667857Y-66206666D01*
X170810714Y-66206666D01*
X170905952Y-66254285D01*
X170953571Y-66301904D01*
X171001190Y-66397142D01*
X171001190Y-66778095D01*
X170477380Y-65873333D02*
X170477380Y-65254285D01*
X170858333Y-65587619D01*
X170858333Y-65444761D01*
X170905952Y-65349523D01*
X170953571Y-65301904D01*
X171048809Y-65254285D01*
X171286904Y-65254285D01*
X171382142Y-65301904D01*
X171429761Y-65349523D01*
X171477380Y-65444761D01*
X171477380Y-65730476D01*
X171429761Y-65825714D01*
X171382142Y-65873333D01*
%TO.C,D2*%
X181512380Y-87098095D02*
X180512380Y-87098095D01*
X180512380Y-86860000D01*
X180560000Y-86717142D01*
X180655238Y-86621904D01*
X180750476Y-86574285D01*
X180940952Y-86526666D01*
X181083809Y-86526666D01*
X181274285Y-86574285D01*
X181369523Y-86621904D01*
X181464761Y-86717142D01*
X181512380Y-86860000D01*
X181512380Y-87098095D01*
X180607619Y-86145714D02*
X180560000Y-86098095D01*
X180512380Y-86002857D01*
X180512380Y-85764761D01*
X180560000Y-85669523D01*
X180607619Y-85621904D01*
X180702857Y-85574285D01*
X180798095Y-85574285D01*
X180940952Y-85621904D01*
X181512380Y-86193333D01*
X181512380Y-85574285D01*
%TO.C,R4*%
X175882380Y-58586666D02*
X175406190Y-58920000D01*
X175882380Y-59158095D02*
X174882380Y-59158095D01*
X174882380Y-58777142D01*
X174930000Y-58681904D01*
X174977619Y-58634285D01*
X175072857Y-58586666D01*
X175215714Y-58586666D01*
X175310952Y-58634285D01*
X175358571Y-58681904D01*
X175406190Y-58777142D01*
X175406190Y-59158095D01*
X175215714Y-57729523D02*
X175882380Y-57729523D01*
X174834761Y-57967619D02*
X175549047Y-58205714D01*
X175549047Y-57586666D01*
D11*
%TO.C,U1*%
X167640000Y-81300000D02*
X165690000Y-81300000D01*
X167640000Y-81300000D02*
X171090000Y-81300000D01*
X167640000Y-76180000D02*
X169590000Y-76180000D01*
X167640000Y-76180000D02*
X165690000Y-76180000D01*
%TO.C,R2*%
X153712936Y-73730000D02*
X154167064Y-73730000D01*
X153712936Y-72260000D02*
X154167064Y-72260000D01*
%TO.C,D1*%
X174827500Y-73875000D02*
X178887500Y-73875000D01*
X178887500Y-73875000D02*
X178887500Y-71605000D01*
X178887500Y-71605000D02*
X174827500Y-71605000D01*
%TO.C,J1*%
X139700000Y-82550000D02*
X149860000Y-82550000D01*
X139700000Y-74930000D02*
X139700000Y-82550000D01*
X149860000Y-74930000D02*
X139700000Y-74930000D01*
X149860000Y-82550000D02*
X149860000Y-74930000D01*
X149860000Y-81280000D02*
X139700000Y-81280000D01*
%TO.C,C1*%
X148260000Y-61895000D02*
X152345000Y-61895000D01*
X152345000Y-60025000D02*
X148260000Y-60025000D01*
X152345000Y-61895000D02*
X152345000Y-60025000D01*
%TO.C,C2*%
X165501252Y-61250000D02*
X166023756Y-61250000D01*
X165501252Y-59780000D02*
X166023756Y-59780000D01*
%TO.C,R1*%
X153147936Y-78597936D02*
X153147936Y-78143808D01*
X151677936Y-78597936D02*
X151677936Y-78143808D01*
%TO.C,R3*%
X170110000Y-65812936D02*
X170110000Y-66267064D01*
X168640000Y-65812936D02*
X168640000Y-66267064D01*
%TO.C,D2*%
X181745000Y-88820000D02*
X184015000Y-88820000D01*
X184015000Y-88820000D02*
X184015000Y-84760000D01*
X181745000Y-84760000D02*
X181745000Y-88820000D01*
%TO.C,R4*%
X173045000Y-58192936D02*
X173045000Y-58647064D01*
X174515000Y-58192936D02*
X174515000Y-58647064D01*
%TD*%
M02*
